# Blender v3.0.0 OBJ File: 'graphics_assignment.blend'
# www.blender.org
mtllib tv_body.mtl
o tv_export_Cube.001
v -0.488819 -0.362133 0.115451
v 0.488819 -0.362133 0.115451
v -0.464997 -0.488819 0.115451
v -0.488819 -0.465405 0.115451
v -0.504605 -0.504605 0.115451
v -0.488819 0.332340 0.115451
v -0.464997 0.355754 0.115451
v -0.504605 0.371541 0.115451
v -0.537032 -0.559358 -0.537032
v -0.559358 -0.537032 -0.537032
v -0.537032 -0.537032 -0.559358
v 0.488819 -0.465405 0.115451
v 0.464997 -0.488819 0.115451
v 0.504605 -0.504605 0.115451
v 0.464997 0.355754 0.115451
v 0.488819 0.332340 0.115451
v 0.504605 0.371541 0.115451
v 0.537032 -0.559358 -0.537032
v 0.537032 -0.537032 -0.559358
v 0.559358 -0.537032 -0.537032
v -0.559358 -0.537032 0.093125
v -0.537032 -0.559358 0.093125
v -0.537032 -0.537032 0.115451
v -0.537032 0.403968 0.115451
v -0.537032 0.426294 0.093125
v -0.559358 0.403968 0.093125
v 0.559358 0.403968 0.093125
v 0.537032 0.426294 0.093125
v 0.537032 0.403968 0.115451
v 0.537032 -0.559358 0.093125
v 0.559358 -0.537032 0.093125
v 0.537032 -0.537032 0.115451
v -0.346053 -0.362445 0.421905
v -0.376545 -0.368412 0.401126
v -0.352865 -0.391949 0.400764
v -0.376545 0.235348 0.401126
v -0.346053 0.229381 0.421905
v -0.352865 0.258885 0.400764
v 0.346053 0.229381 0.421905
v 0.376545 0.235348 0.401126
v 0.352865 0.258885 0.400764
v 0.376545 -0.368412 0.401126
v 0.346053 -0.362445 0.421905
v 0.352865 -0.391949 0.400764
v -0.559358 -0.411510 0.093125
v -0.537032 -0.395882 0.115451
v 0.559358 -0.411510 0.093125
v 0.537032 -0.395882 0.115451
v -0.376545 -0.294238 0.401126
v -0.346053 -0.289300 0.421905
v 0.376545 -0.294238 0.401126
v 0.346053 -0.289300 0.421905
v -0.559358 0.403968 -0.537032
v -0.537032 0.426294 -0.537032
v -0.537032 0.403968 -0.559358
v 0.537032 0.426294 -0.537032
v 0.559358 0.403968 -0.537032
v 0.537032 0.403968 -0.559358
v -0.559358 -0.411510 -0.537032
v -0.537032 -0.411510 -0.559358
v 0.537032 -0.411510 -0.559358
v 0.559358 -0.411510 -0.537032
v -0.455751 0.332379 -0.559358
v -0.465443 0.322687 -0.559358
v -0.472297 0.339233 -0.559358
v 0.465443 0.322687 -0.559358
v 0.455751 0.332379 -0.559358
v 0.472297 0.339233 -0.559358
v -0.465443 -0.307903 -0.559358
v -0.455751 -0.317596 -0.559358
v -0.471319 -0.325304 -0.559358
v 0.455751 -0.317596 -0.559358
v 0.465443 -0.307903 -0.559358
v 0.471319 -0.325304 -0.559358
v -0.465443 0.322687 -0.488060
v -0.455751 0.332379 -0.488060
v 0.455751 0.332379 -0.488060
v 0.465443 0.322687 -0.488060
v -0.455751 -0.317596 -0.488060
v -0.465443 -0.307903 -0.488060
v 0.465443 -0.307903 -0.488060
v 0.455751 -0.317596 -0.488060
vt 0.870011 0.508271
vt 0.629989 0.741729
vt 0.629989 0.508271
vt 0.436320 0.273153
vt 0.436320 0.476847
vt 0.436320 0.476847
vt 0.425024 0.772384
vt 0.400406 0.977616
vt 0.400406 0.772384
vt 0.425024 0.984236
vt 0.599931 0.984237
vt 0.601170 0.984237
vt 0.425024 0.765764
vt 0.400456 0.765763
vt 0.398830 0.765764
vt 0.619337 0.508271
vt 0.412500 0.741729
vt 0.412500 0.508271
vt 0.607108 0.978913
vt 0.607108 0.772129
vt 0.607108 0.771087
vt 0.601170 0.765764
vt 0.416464 0.754989
vt 0.619337 0.754989
vt 0.400456 0.984237
vt 0.425024 0.984236
vt 0.619337 0.995011
vt 0.416464 0.995011
vt 0.619337 0.495011
vt 0.412500 0.495011
vt 0.438779 0.479013
vt 0.398830 0.984236
vt 0.412500 0.008271
vt 0.380663 0.241729
vt 0.380663 0.008271
vt 0.380663 0.741729
vt 0.380663 0.508271
vt 0.388887 0.762236
vt 0.380663 0.754989
vt 0.599594 0.772384
vt 0.425024 0.977616
vt 0.599931 0.765763
vt 0.425024 0.765763
vt 0.392892 0.771087
vt 0.392892 0.977871
vt 0.392892 0.978913
vt 0.619337 0.008271
vt 0.412500 0.241729
vt 0.370011 0.508271
vt 0.129989 0.741729
vt 0.129989 0.508271
vt 0.412500 0.254989
vt 0.380663 0.495011
vt 0.380663 0.254989
vt 0.598721 0.270987
vt 0.438779 0.270987
vt 0.438779 0.270987
vt 0.598721 0.479013
vt 0.598721 0.479013
vt 0.598721 0.270987
vt 0.601179 0.273153
vt 0.619337 0.254989
vt 0.601179 0.476847
vt 0.392892 0.984925
vt 0.388887 0.987764
vt 0.607873 0.984237
vt 0.611113 0.987764
vt 0.125000 0.508271
vt 0.129989 0.500000
vt 0.392169 0.765763
vt 0.607108 0.765075
vt 0.611112 0.762236
vt 0.370011 0.500000
vt 0.375000 0.508271
vt 0.125000 0.741729
vt 0.125000 0.741729
vt 0.129989 0.750000
vt 0.870011 0.750000
vt 0.875000 0.741729
vt 0.875000 0.741729
vt 0.619337 0.750000
vt 0.622169 0.752495
vt 0.370011 0.741729
vt 0.375000 0.741729
vt 0.370011 0.750000
vt 0.599594 0.977616
vt 0.607108 0.977871
vt 0.392892 0.772128
vt 0.875000 0.508271
vt 0.875000 0.508271
vt 0.870011 0.500000
vt 0.625000 0.495011
vt 0.619337 0.500000
vt 0.416464 0.000000
vt 0.870011 0.741729
vt 0.629989 0.750000
vt 0.380663 0.000000
vt 0.619337 0.241729
vt 0.619337 0.741729
vt 0.380663 0.995011
vt 0.601179 0.273153
vt 0.601180 0.270987
vt 0.602918 0.269456
vt 0.601180 0.479013
vt 0.602918 0.480544
vt 0.436320 0.270987
vt 0.434365 0.269674
vt 0.436320 0.479013
vt 0.434365 0.480326
vt 0.601179 0.476847
vt 0.436320 0.273153
vt 0.438779 0.479013
vt 0.619337 0.000000
vt 0.629989 0.500000
vt 0.412500 0.000000
vn 0.0000 1.0000 0.0000
vn 0.0000 0.0000 1.0000
vn -0.9307 0.0000 0.3658
vn 0.9307 0.0000 0.3658
vn 1.0000 0.0000 0.0000
vn 0.0000 0.9469 0.3215
vn -0.0000 0.0000 -1.0000
vn -1.0000 0.0000 0.0000
vn 0.0000 -0.9469 0.3215
vn 0.0000 -1.0000 0.0000
vn -0.5774 -0.5774 -0.5774
vn 0.5774 -0.5774 -0.5774
vn -0.5773 -0.5774 0.5774
vn -0.5773 0.5774 0.5774
vn 0.5773 0.5774 0.5774
vn 0.5773 -0.5774 0.5774
vn -0.4394 -0.4540 0.7751
vn -0.4394 0.4540 0.7751
vn 0.4394 0.4540 0.7751
vn 0.4394 -0.4540 0.7751
vn -0.5773 0.5773 -0.5774
vn 0.5773 0.5773 -0.5774
vn -0.7071 -0.7071 0.0000
vn -0.7071 0.0000 0.7071
vn -0.7071 0.7071 0.0000
vn -0.7071 0.0000 -0.7071
vn 0.0000 -0.7071 -0.7071
vn 0.0000 0.7071 -0.7071
vn 0.7071 0.0000 -0.7071
vn 0.7071 -0.7071 0.0000
vn 0.7071 0.7071 0.0000
vn 0.7071 0.0000 0.7071
vn 0.0000 -0.7071 0.7071
vn 0.0000 0.7071 0.7071
vn -0.5631 0.0000 0.8264
vn 0.5631 0.0000 0.8264
vn 0.0000 -0.5825 0.8129
vn 0.0000 0.5825 0.8129
vn 0.6225 -0.6334 0.4597
vn -0.6225 -0.6334 0.4597
vn -0.6225 0.6334 0.4597
vn 0.6225 0.6334 0.4597
usemtl tv_box
s off
f 54/1/1 28/2/1 56/3/1
f 70/4/1 82/5/1 72/6/1
f 52/7/2 33/8/2 43/9/2
f 1/10/3 36/11/3 6/12/3
f 2/13/4 42/14/4 12/15/4
f 57/16/5 47/17/5 62/18/5
f 7/19/6 41/20/6 15/21/6
f 16/22/2 48/23/2 29/24/2
f 1/10/3 34/25/3 49/26/3
f 6/12/2 24/27/2 46/28/2
f 58/29/7 61/30/7 73/31/7
f 4/32/2 1/10/2 46/28/2
f 45/33/8 10/34/8 21/35/8
f 62/18/5 31/36/5 20/37/5
f 14/38/2 32/39/2 48/23/2
f 29/24/2 24/27/2 7/19/2
f 39/40/2 50/41/2 52/7/2
f 2/13/4 40/42/4 51/43/4
f 13/44/9 35/45/9 3/46/9
f 26/47/8 59/48/8 45/33/8
f 18/49/10 22/50/10 9/51/10
f 60/52/7 19/53/7 11/54/7
f 64/55/5 80/56/5 69/57/5
f 73/31/8 78/58/8 66/59/8
f 80/56/7 75/60/7 76/61/7
f 55/62/7 69/57/7 60/52/7
f 60/52/7 72/6/7 61/30/7
f 55/62/7 58/29/7 67/63/7
f 3/46/2 4/64/2 5/65/2
f 6/12/2 7/66/2 8/67/2
f 9/51/11 10/68/11 11/69/11
f 12/15/2 13/70/2 14/38/2
f 15/21/2 16/71/2 17/72/2
f 18/49/12 19/73/12 20/74/12
f 21/75/13 22/76/13 23/77/13
f 24/78/14 25/79/14 26/80/14
f 27/81/15 28/82/15 29/24/15
f 30/83/16 31/84/16 32/85/16
f 33/8/17 34/25/17 35/45/17
f 36/11/18 37/86/18 38/87/18
f 39/40/19 40/42/19 41/20/19
f 42/14/20 43/9/20 44/88/20
f 53/89/21 54/90/21 55/91/21
f 56/92/22 57/93/22 58/29/22
f 22/50/23 10/68/23 9/51/23
f 46/94/24 26/47/24 45/33/24
f 54/1/25 26/80/25 25/95/25
f 11/54/26 59/48/26 60/52/26
f 9/51/27 19/73/27 18/49/27
f 56/3/28 55/91/28 54/1/28
f 20/37/29 61/30/29 62/18/29
f 18/49/30 31/36/30 30/83/30
f 28/2/31 57/16/31 56/3/31
f 32/39/32 47/17/32 48/23/32
f 30/83/33 23/77/33 22/50/33
f 25/95/34 29/96/34 28/2/34
f 37/86/35 49/26/35 50/41/35
f 43/9/36 51/43/36 52/7/36
f 44/88/37 33/8/37 35/45/37
f 38/87/38 39/40/38 41/20/38
f 42/14/39 13/44/39 12/15/39
f 34/25/40 3/46/40 35/45/40
f 7/19/41 36/11/41 38/87/41
f 40/42/42 15/21/42 41/20/42
f 23/97/24 45/33/24 21/35/24
f 60/52/26 53/98/26 55/62/26
f 62/18/29 58/29/29 57/16/29
f 48/23/32 27/99/32 29/24/32
f 33/8/35 49/26/35 34/25/35
f 39/40/36 51/43/36 40/42/36
f 23/100/2 32/39/2 13/44/2
f 63/101/7 64/102/7 65/103/7
f 66/59/7 67/104/7 68/105/7
f 69/57/7 70/106/7 71/107/7
f 72/6/7 73/108/7 74/109/7
f 82/5/25 73/31/25 72/6/25
f 67/63/23 78/58/23 77/110/23
f 64/55/30 76/61/30 75/60/30
f 80/56/31 70/4/31 69/57/31
f 67/63/10 76/61/10 63/101/10
f 54/1/1 25/95/1 28/2/1
f 70/4/1 79/111/1 82/5/1
f 52/7/2 50/41/2 33/8/2
f 1/10/3 49/26/3 36/11/3
f 2/13/4 51/43/4 42/14/4
f 57/16/5 27/99/5 47/17/5
f 7/19/6 38/87/6 41/20/6
f 29/24/2 17/72/2 16/22/2
f 16/22/2 2/13/2 48/23/2
f 1/10/3 4/32/3 34/25/3
f 46/28/2 1/10/2 6/12/2
f 6/12/2 8/67/2 24/27/2
f 61/30/7 74/109/7 73/31/7
f 73/31/7 66/59/7 58/29/7
f 66/59/7 68/105/7 58/29/7
f 23/100/2 5/65/2 46/28/2
f 5/65/2 4/32/2 46/28/2
f 45/33/8 59/48/8 10/34/8
f 62/18/5 47/17/5 31/36/5
f 48/23/2 2/13/2 12/15/2
f 12/15/2 14/38/2 48/23/2
f 24/27/2 8/67/2 7/19/2
f 7/19/2 15/21/2 29/24/2
f 15/21/2 17/72/2 29/24/2
f 39/40/2 37/86/2 50/41/2
f 2/13/4 16/22/4 40/42/4
f 13/44/9 44/88/9 35/45/9
f 26/47/8 53/98/8 59/48/8
f 18/49/10 30/83/10 22/50/10
f 60/52/7 61/30/7 19/53/7
f 64/55/5 75/60/5 80/56/5
f 73/31/8 81/112/8 78/58/8
f 76/61/7 77/110/7 82/5/7
f 77/110/7 78/58/7 82/5/7
f 78/58/7 81/112/7 82/5/7
f 82/5/7 79/111/7 76/61/7
f 79/111/7 80/56/7 76/61/7
f 55/62/7 65/103/7 64/55/7
f 64/55/7 69/57/7 55/62/7
f 69/57/7 71/107/7 60/52/7
f 60/52/7 71/107/7 70/4/7
f 70/4/7 72/6/7 60/52/7
f 72/6/7 74/109/7 61/30/7
f 58/29/7 68/105/7 67/63/7
f 67/63/7 63/101/7 55/62/7
f 63/101/7 65/103/7 55/62/7
f 22/50/23 21/75/23 10/68/23
f 46/94/24 24/113/24 26/47/24
f 54/1/25 53/89/25 26/80/25
f 11/54/26 10/34/26 59/48/26
f 9/51/27 11/69/27 19/73/27
f 56/3/28 58/114/28 55/91/28
f 20/37/29 19/53/29 61/30/29
f 18/49/30 20/37/30 31/36/30
f 28/2/31 27/99/31 57/16/31
f 32/39/32 31/36/32 47/17/32
f 30/83/33 32/85/33 23/77/33
f 25/95/34 24/78/34 29/96/34
f 37/86/35 36/11/35 49/26/35
f 43/9/36 42/14/36 51/43/36
f 44/88/37 43/9/37 33/8/37
f 38/87/38 37/86/38 39/40/38
f 42/14/39 44/88/39 13/44/39
f 34/25/40 4/32/40 3/46/40
f 7/19/41 6/12/41 36/11/41
f 40/42/42 16/22/42 15/21/42
f 23/97/24 46/115/24 45/33/24
f 60/52/26 59/48/26 53/98/26
f 62/18/29 61/30/29 58/29/29
f 48/23/32 47/17/32 27/99/32
f 33/8/35 50/41/35 49/26/35
f 39/40/36 52/7/36 51/43/36
f 32/39/2 14/38/2 13/44/2
f 13/44/2 3/46/2 23/100/2
f 3/46/2 5/65/2 23/100/2
f 82/5/25 81/112/25 73/31/25
f 67/63/23 66/59/23 78/58/23
f 64/55/30 63/101/30 76/61/30
f 80/56/31 79/111/31 70/4/31
f 67/63/10 77/110/10 76/61/10
