# Blender v3.0.0 OBJ File: 'graphics_assignment.blend'
# www.blender.org
mtllib tv_screen.mtl
o tv_export_screen_Cube.004
v -0.465443 0.332379 -0.524310
v 0.465443 0.332379 -0.524310
v -0.465443 -0.317596 -0.524310
v 0.465443 -0.317596 -0.524310
v 0.000000 0.332379 -0.554872
v -0.465443 0.007392 -0.524310
v 0.465443 0.007392 -0.524310
v 0.000000 -0.317596 -0.554872
v 0.000000 0.007392 -0.571879
v 0.232722 0.332379 -0.540205
v -0.465443 -0.155102 -0.524310
v 0.465443 -0.155102 -0.524310
v 0.232722 -0.317596 -0.540205
v -0.232722 0.332379 -0.540205
v -0.465443 0.169885 -0.524310
v 0.465443 0.169885 -0.524310
v -0.232722 -0.317596 -0.540205
v 0.232722 0.007392 -0.564077
v -0.232722 0.007392 -0.564077
v 0.000000 -0.155102 -0.568249
v 0.000000 0.169885 -0.568249
v -0.232722 0.169885 -0.559655
v -0.232722 -0.155102 -0.559655
v 0.232722 -0.155102 -0.559655
v 0.232722 0.169885 -0.559655
vt 0.750440 0.149798
vt 0.999980 0.323088
vt 0.748879 0.324371
vt 0.748605 0.497434
vt 1.000675 0.671087
vt 0.748973 0.670668
vt 0.252911 0.497644
vt 0.500707 0.670693
vt 0.252637 0.670707
vt 0.251340 0.149433
vt 0.500809 0.324386
vt 0.252543 0.324411
vt 0.500758 0.497539
vt 0.000842 0.323992
vt 0.000878 0.498069
vt 0.001316 0.149778
vt 0.500555 0.844859
vt 0.251077 0.845280
vt 0.001536 0.671991
vt 0.001791 0.845645
vt 1.000200 0.845300
vt 0.750177 0.845645
vt 1.000638 0.497010
vt 0.500962 0.150220
vt 0.999726 0.149433
vn 0.0906 0.0955 -0.9913
vn 0.1251 0.0229 -0.9919
vn 0.1001 0.0664 -0.9928
vn 0.0988 0.0021 -0.9951
vn 0.1558 -0.0052 -0.9878
vn 0.0805 -0.0610 -0.9949
vn -0.0988 -0.0021 -0.9951
vn 0.0045 -0.0562 -0.9984
vn -0.1001 -0.0664 -0.9928
vn -0.0573 0.1115 -0.9921
vn -0.0045 0.0562 -0.9984
vn -0.0805 0.0610 -0.9949
vn 0.0000 0.0000 -1.0000
vn -0.1558 0.0052 -0.9878
vn -0.1628 -0.0052 -0.9866
vn -0.1186 0.0459 -0.9919
vn 0.0080 -0.0892 -0.9960
vn -0.0906 -0.0955 -0.9913
vn -0.1251 -0.0229 -0.9919
vn -0.0681 0.0000 -0.9977
vn 0.1186 -0.0459 -0.9919
vn 0.0573 -0.1115 -0.9921
vn 0.1628 0.0052 -0.9866
vn -0.0080 0.0892 -0.9960
vn 0.0681 0.0000 -0.9977
usemtl tv_display
s 1
f 10/1/1 16/2/2 25/3/3
f 18/4/4 12/5/5 24/6/6
f 19/7/7 20/8/8 23/9/9
f 14/10/10 21/11/11 22/12/12
f 22/12/12 9/13/13 19/7/7
f 15/14/14 19/7/7 6/15/15
f 1/16/16 22/12/12 15/14/14
f 23/9/9 8/17/17 17/18/18
f 11/19/19 17/18/18 3/20/20
f 6/15/15 23/9/9 11/19/19
f 24/6/6 4/21/21 13/22/22
f 20/8/8 13/22/22 8/17/17
f 9/13/13 24/6/6 20/8/8
f 25/3/3 7/23/23 18/4/4
f 21/11/11 18/4/4 9/13/13
f 5/24/24 25/3/3 21/11/11
f 10/1/1 2/25/25 16/2/2
f 18/4/4 7/23/23 12/5/5
f 19/7/7 9/13/13 20/8/8
f 14/10/10 5/24/24 21/11/11
f 22/12/12 21/11/11 9/13/13
f 15/14/14 22/12/12 19/7/7
f 1/16/16 14/10/10 22/12/12
f 23/9/9 20/8/8 8/17/17
f 11/19/19 23/9/9 17/18/18
f 6/15/15 19/7/7 23/9/9
f 24/6/6 12/5/5 4/21/21
f 20/8/8 24/6/6 13/22/22
f 9/13/13 18/4/4 24/6/6
f 25/3/3 16/2/2 7/23/23
f 21/11/11 25/3/3 18/4/4
f 5/24/24 10/1/1 25/3/3
